<?xml version="1.0" encoding="iso-8859-1"?>
<!-- Generator: Adobe Illustrator 19.0.0, SVG Export Plug-In . SVG Version: 6.00 Build 0)  -->
<svg version="1.1" id="Layer_1" xmlns="http://www.w3.org/2000/svg" xmlns:xlink="http://www.w3.org/1999/xlink" x="0px" y="0px"
	 viewBox="0 0 511.999 511.999" style="enable-background:new 0 0 511.999 511.999;" xml:space="preserve">
<g>
	<g>
		<path d="M248.139,121.263V80.842c-7.303,0-13.472-6.171-13.472-13.474V53.895C234.666,24.177,210.489,0,180.772,0
			c-29.718,0-53.895,24.177-53.895,53.895v124.739c-23.522,8.343-40.421,30.808-40.421,57.155c0,21.835,11.606,41.007,28.968,51.682
			c-6.331,9.882-14.013,22.236-21.749,35.573c-38.659,66.641-38.659,89.403-38.659,96.884c0,50.768,41.302,92.07,92.07,92.07
			c50.767,0,92.07-41.302,92.07-92.07c0-7.479,0-30.242-38.657-96.884c-7.737-13.338-15.418-25.692-21.749-35.573
			c17.364-10.677,28.968-29.847,28.968-51.682c0-26.348-16.899-48.812-40.421-57.155V53.895c0-7.303,6.171-13.474,13.474-13.474
			s13.474,6.171,13.474,13.474v13.474C194.244,97.086,218.421,121.263,248.139,121.263z M167.298,417.684
			c0,11.162-9.049,20.211-20.211,20.211c-11.162,0-20.211-9.049-20.211-20.211c0-11.162,9.049-20.211,20.211-20.211
			C158.249,397.474,167.298,406.523,167.298,417.684z"/>
	</g>
</g>
<g>
	<g>
		<path d="M456.982,121.263V80.842c-7.303,0-13.474-6.171-13.474-13.474V53.895C443.509,24.177,419.331,0,389.614,0
			c-29.718,0-53.895,24.177-53.895,53.895v124.739c-23.522,8.343-40.421,30.808-40.421,57.155c0,21.835,11.606,41.007,28.968,51.682
			c-6.331,9.882-14.013,22.236-21.749,35.573c-38.659,66.641-38.659,89.403-38.659,96.884c0,50.768,41.302,92.07,92.07,92.07
			c50.768,0,92.07-41.302,92.07-92.07c0-7.479,0-30.242-38.657-96.884c-7.737-13.338-15.418-25.692-21.749-35.573
			c17.364-10.677,28.968-29.847,28.968-51.682c0-26.348-16.899-48.812-40.421-57.155V53.895c0-7.303,6.171-13.474,13.474-13.474
			c7.303,0,13.474,6.171,13.474,13.474v13.474C403.088,97.086,427.263,121.263,456.982,121.263z M376.14,417.684
			c0,11.162-9.049,20.211-20.211,20.211c-11.163,0-20.211-9.049-20.211-20.211c0-11.162,9.048-20.211,20.211-20.211
			C367.091,397.474,376.14,406.523,376.14,417.684z"/>
	</g>
</g>
<g>
</g>
<g>
</g>
<g>
</g>
<g>
</g>
<g>
</g>
<g>
</g>
<g>
</g>
<g>
</g>
<g>
</g>
<g>
</g>
<g>
</g>
<g>
</g>
<g>
</g>
<g>
</g>
<g>
</g>
</svg>
